<?xml version="1.0" standalone="no"?>
<!DOCTYPE svg PUBLIC "-//W3C//DTD SVG 1.1//EN" "http://www.w3.org/Graphics/SVG/1.1/DTD/svg11.dtd" >
<svg xmlns="http://www.w3.org/2000/svg">
<metadata>
This is a custom SVG webfont generated by Font Squirrel.
Copyright   : 1999  yuji oshimoo   04jporg  www04jporg
</metadata>
<defs>
<font id="04b25Regular" horiz-adv-x="1024" >
<font-face units-per-em="2048" ascent="1877" descent="-171" />
<missing-glyph horiz-adv-x="682" />
<glyph unicode=" "  horiz-adv-x="682" />
<glyph unicode="&#x09;" horiz-adv-x="682" />
<glyph unicode="&#xa0;" horiz-adv-x="682" />
<glyph unicode="!" horiz-adv-x="512" d="M0 0h341v341h-341v-341zM0 512h341v853h-341v-853z" />
<glyph unicode="&#x22;" d="M0 853h341v512h-341v-512zM512 853h341v512h-341v-512z" />
<glyph unicode="#" horiz-adv-x="1365" d="M0 171h171v-171h341v171h171v-171h341v171h171v341h-171v341h171v342h-171v170h-341v-170h-171v170h-341v-170h-171v-342h171v-341h-171v-341zM512 512v341h171v-341h-171z" />
<glyph unicode="$" horiz-adv-x="1365" d="M0 0h341v-171h342v171h341v171h171v512h-171v170h-171v171h342v341h-342v171h-341v-171h-341v-170h-171v-512h171v-171h170v-171h-341v-341zM341 853v171h171v-171h-171zM683 341v171h170v-171h-170z" />
<glyph unicode="%" horiz-adv-x="1194" d="M0 0h341v341h171v171h171v171h170v170h171v512h-341v-341h-171v-171h-171v-170h-170v-171h-171v-512zM0 1024h341v341h-341v-341zM683 0h341v341h-341v-341z" />
<glyph unicode="&#x26;" horiz-adv-x="1536" d="M0 171h171v-171h682v171h171v170h171v171h170v341h-341v-170h-171v170h171v342h-171v170h-682v-170h-171v-342h171v-170h-171v-512zM341 341v171h342v-171h-342zM341 853v171h342v-171h-342z" />
<glyph unicode="'" horiz-adv-x="512" d="M0 853h341v512h-341v-512z" />
<glyph unicode="(" horiz-adv-x="853" d="M0 171h171v-171h512v341h-342v683h342v341h-512v-170h-171v-1024z" />
<glyph unicode=")" horiz-adv-x="853" d="M0 0v341h341v683h-341v341h512v-170h171v-1024h-171v-171h-512z" />
<glyph unicode="*" horiz-adv-x="853" d="M0 853h171v-170h341v170h171v342h-171v170h-341v-170h-171v-342z" />
<glyph unicode="+" horiz-adv-x="1194" d="M0 512h341v-341h342v341h341v341h-341v342h-342v-342h-341v-341z" />
<glyph unicode="," horiz-adv-x="512" d="M0 -171h341v512h-341v-512z" />
<glyph unicode="-" horiz-adv-x="1194" d="M0 512h1024v341h-1024v-341z" />
<glyph unicode="." horiz-adv-x="512" d="M0 0h341v341h-341v-341z" />
<glyph unicode="/" horiz-adv-x="1536" d="M0 0h341v171h171v170h171v171h170v171h171v170h171v171h170v341h-341v-170h-171v-171h-170v-171h-171v-170h-171v-171h-170v-171h-171v-341z" />
<glyph unicode="0" d="M0 171h171v-171h512v171h170v1024h-170v170h-512v-170h-171v-1024zM341 341v683h171v-683h-171z" />
<glyph unicode="1" horiz-adv-x="682" d="M0 1024h171v-1024h341v1195h-171v170h-341v-341z" />
<glyph unicode="2" d="M0 0h853v341h-512v171h342v171h170v512h-170v170h-683v-341h512v-171h-341v-170h-171v-683z" />
<glyph unicode="3" d="M0 0h683v171h170v1024h-170v170h-683v-341h512v-171h-341v-341h341v-171h-512v-341z" />
<glyph unicode="4" d="M0 512h171v-171h341v-341h341v1365h-341v-682h-171v682h-341v-853z" />
<glyph unicode="5" d="M0 0h683v171h170v512h-170v170h-342v171h512v341h-853v-853h512v-171h-512v-341z" />
<glyph unicode="6" d="M0 171h171v-171h512v171h170v512h-170v170h-342v171h512v341h-682v-170h-171v-1024zM341 341v171h171v-171h-171z" />
<glyph unicode="7" d="M0 1024h512v-171h-171v-170h-170v-683h341v512h171v171h170v682h-853v-341z" />
<glyph unicode="8" d="M0 171h171v-171h512v171h170v1024h-170v170h-512v-170h-171v-1024zM341 341v171h171v-171h-171zM341 853v171h171v-171h-171z" />
<glyph unicode="9" d="M0 683h171v-171h341v-171h-341v-341h512v171h170v1024h-170v170h-512v-170h-171v-512zM341 853v171h171v-171h-171z" />
<glyph unicode=":" horiz-adv-x="512" d="M0 171h341v341h-341v-341zM0 853h341v342h-341v-342z" />
<glyph unicode=";" horiz-adv-x="512" d="M0 0h341v512h-341v-512zM0 853h341v342h-341v-342z" />
<glyph unicode="&#x3c;" d="M0 512h171v-171h170v-170h171v-171h341v341h-170v171h-171v341h171v171h170v341h-341v-170h-171v-171h-170v-171h-171v-341z" />
<glyph unicode="=" d="M0 171h853v341h-853v-341zM0 853h853v342h-853v-342z" />
<glyph unicode="&#x3e;" d="M0 0v341h171v171h170v341h-170v171h-171v341h341v-170h171v-171h171v-171h170v-341h-170v-171h-171v-170h-171v-171h-341z" />
<glyph unicode="?" d="M0 1024h512v-171h-341v-341h512v171h170v512h-170v170h-683v-341zM171 0h341v341h-341v-341z" />
<glyph unicode="@" horiz-adv-x="1536" d="M0 171h171v-171h1024v171h170v1024h-170v170h-1024v-170h-171v-1024zM341 341v683h683v-171h-512v-512h-171zM853 341v171h171v-171h-171z" />
<glyph unicode="A" d="M0 0h341v512h171v-512h341v1536h-170v171h-512v-171h-171v-1536zM341 853v512h171v-512h-171z" />
<glyph unicode="B" d="M0 0h683v171h170v682h-170v171h170v512h-170v171h-683v-1707zM341 341v342h171v-342h-171zM341 1024v341h171v-341h-171z" />
<glyph unicode="C" d="M0 171h171v-171h512v171h170v512h-341v-342h-171v1024h171v-341h341v512h-170v171h-512v-171h-171v-1365z" />
<glyph unicode="D" d="M0 0h683v171h170v1365h-170v171h-683v-1707zM341 341v1024h171v-1024h-171z" />
<glyph unicode="E" d="M0 171h171v-171h682v341h-512v342h512v341h-512v341h512v342h-682v-171h-171v-1365z" />
<glyph unicode="F" d="M0 0h341v683h512v341h-512v341h512v342h-682v-171h-171v-1536z" />
<glyph unicode="G" d="M0 171h171v-171h512v171h170v1024h-341v-854h-171v1024h512v342h-682v-171h-171v-1365z" />
<glyph unicode="H" d="M0 0h341v683h171v-683h341v1707h-341v-683h-171v683h-341v-1707z" />
<glyph unicode="I" horiz-adv-x="512" d="M0 0h341v1707h-341v-1707z" />
<glyph unicode="J" d="M0 171h171v-171h512v171h170v1536h-512v-342h171v-1024h-171v683h-341v-853z" />
<glyph unicode="K" d="M0 0h341v683h171v-683h341v853h-170v171h170v683h-341v-683h-171v683h-341v-1707z" />
<glyph unicode="L" d="M0 171h171v-171h682v341h-512v1366h-341v-1536z" />
<glyph unicode="M" horiz-adv-x="1536" d="M0 0h341v1365h171v-1365h341v1365h171v-1365h341v1536h-170v171h-1195v-1707z" />
<glyph unicode="N" d="M0 0h341v1365h171v-1365h341v1536h-170v171h-683v-1707z" />
<glyph unicode="O" d="M0 171h171v-171h512v171h170v1365h-170v171h-512v-171h-171v-1365zM341 341v1024h171v-1024h-171z" />
<glyph unicode="P" d="M0 0h341v512h342v171h170v853h-170v171h-683v-1707zM341 853v512h171v-512h-171z" />
<glyph unicode="Q" d="M0 171h171v-171h170v-171h342v342h170v1365h-170v171h-512v-171h-171v-1365zM341 341v1024h171v-1024h-171z" />
<glyph unicode="R" d="M0 0h341v512h171v-512h341v512h-170v171h170v853h-170v171h-683v-1707zM341 853v512h171v-512h-171z" />
<glyph unicode="S" d="M0 171h171v-171h512v171h170v682h-170v171h-342v341h171v-170h341v341h-170v171h-512v-171h-171v-683h171v-170h341v-342h-171v171h-341v-341z" />
<glyph unicode="T" horiz-adv-x="1194" d="M0 1365h341v-1365h342v1365h341v342h-1024v-342z" />
<glyph unicode="U" d="M0 171h171v-171h512v171h170v1536h-341v-1366h-171v1366h-341v-1536z" />
<glyph unicode="V" d="M0 0h512v171h171v170h170v1366h-341v-1366h-171v1366h-341v-1707z" />
<glyph unicode="W" horiz-adv-x="1536" d="M0 0h1024v171h171v170h170v1366h-341v-1366h-171v1366h-341v-1366h-171v1366h-341v-1707z" />
<glyph unicode="X" d="M0 0h341v683h171v-683h341v853h-170v171h170v683h-341v-683h-171v683h-341v-683h171v-171h-171v-853z" />
<glyph unicode="Y" d="M0 683h171v-171h341v-171h-341v-341h512v171h170v1536h-341v-854h-171v854h-341v-1024z" />
<glyph unicode="Z" d="M0 0h853v341h-512v342h171v170h171v171h170v683h-853v-342h512v-170h-171v-171h-170v-171h-171v-853z" />
<glyph unicode="[" horiz-adv-x="853" d="M0 0h683v341h-342v683h342v341h-683v-1365z" />
<glyph unicode="\" horiz-adv-x="1536" d="M0 1024v341h341v-170h171v-171h171v-171h170v-170h171v-171h171v-171h170v-341h-341v171h-171v170h-170v171h-171v171h-171v170h-170v171h-171z" />
<glyph unicode="]" horiz-adv-x="853" d="M0 0v341h341v683h-341v341h683v-1365h-683z" />
<glyph unicode="^" horiz-adv-x="682" d="M0 1024h512v341h-512v-341z" />
<glyph unicode="_" d="M0 0h853v341h-853v-341z" />
<glyph unicode="`" horiz-adv-x="682" d="M0 1024h512v341h-512v-341z" />
<glyph unicode="a" d="M0 0h341v341h171v-341h341v1195h-170v170h-512v-170h-171v-1195zM341 683v341h171v-341h-171z" />
<glyph unicode="b" d="M0 0h683v171h170v1024h-170v170h-683v-1365zM341 341v171h171v-171h-171zM341 853v171h171v-171h-171z" />
<glyph unicode="c" d="M0 171h171v-171h512v171h170v341h-341v-171h-171v683h171v-171h341v342h-170v170h-512v-170h-171v-1024z" />
<glyph unicode="d" d="M0 0h683v171h170v1024h-170v170h-683v-1365zM341 341v683h171v-683h-171z" />
<glyph unicode="e" d="M0 171h171v-171h682v341h-512v171h512v341h-512v171h512v341h-682v-170h-171v-1024z" />
<glyph unicode="f" d="M0 0h341v512h512v341h-512v171h512v341h-682v-170h-171v-1195z" />
<glyph unicode="g" d="M0 171h171v-171h682v853h-341v-512h-171v683h512v341h-682v-170h-171v-1024z" />
<glyph unicode="h" d="M0 0h341v512h171v-512h341v1365h-341v-512h-171v512h-341v-1365z" />
<glyph unicode="i" horiz-adv-x="512" d="M0 0h341v1365h-341v-1365z" />
<glyph unicode="j" d="M0 171h171v-171h512v171h170v1194h-512v-341h171v-683h-171v512h-341v-682z" />
<glyph unicode="k" d="M0 0h341v512h171v-512h341v683h-170v170h170v512h-341v-512h-171v512h-341v-1365z" />
<glyph unicode="l" d="M0 171h171v-171h682v341h-512v1024h-341v-1194z" />
<glyph unicode="m" horiz-adv-x="1536" d="M0 0h341v1024h171v-1024h341v1024h171v-1024h341v1195h-170v170h-1195v-1365z" />
<glyph unicode="n" d="M0 0h341v1024h171v-1024h341v1195h-170v170h-683v-1365z" />
<glyph unicode="o" d="M0 171h171v-171h512v171h170v1024h-170v170h-512v-170h-171v-1024zM341 341v683h171v-683h-171z" />
<glyph unicode="p" d="M0 0h341v341h342v171h170v683h-170v170h-683v-1365zM341 683v341h171v-341h-171z" />
<glyph unicode="q" d="M0 171h171v-171h170v-171h342v342h170v1024h-170v170h-512v-170h-171v-1024zM341 341v683h171v-683h-171z" />
<glyph unicode="r" d="M0 0h341v341h171v-341h341v341h-170v171h170v683h-170v170h-683v-1365zM341 683v341h171v-341h-171z" />
<glyph unicode="s" d="M0 0h683v171h170v512h-170v170h-342v171h512v341h-682v-170h-171v-512h171v-171h341v-171h-512v-341z" />
<glyph unicode="t" horiz-adv-x="1194" d="M0 1024h341v-1024h342v1024h341v341h-1024v-341z" />
<glyph unicode="u" d="M0 171h171v-171h512v171h170v1194h-341v-1024h-171v1024h-341v-1194z" />
<glyph unicode="v" d="M0 0h512v171h171v170h170v1024h-341v-1024h-171v1024h-341v-1365z" />
<glyph unicode="w" horiz-adv-x="1536" d="M0 0h1024v171h171v170h170v1024h-341v-1024h-171v1024h-341v-1024h-171v1024h-341v-1365z" />
<glyph unicode="x" d="M0 0h341v512h171v-512h341v683h-170v170h170v512h-341v-512h-171v512h-341v-512h171v-170h-171v-683z" />
<glyph unicode="y" d="M0 683h171v-171h341v-171h-341v-341h512v171h170v1194h-341v-512h-171v512h-341v-682z" />
<glyph unicode="z" d="M0 0h853v341h-512v171h342v171h170v682h-853v-341h512v-171h-341v-170h-171v-683z" />
<glyph unicode="{" horiz-adv-x="853" d="M0 512h171v-341h170v-171h342v341h-171v683h171v341h-342v-170h-170v-342h-171v-341z" />
<glyph unicode="|" horiz-adv-x="512" d="M0 0h341v1365h-341v-1365z" />
<glyph unicode="}" horiz-adv-x="853" d="M0 0v341h171v683h-171v341h341v-170h171v-342h171v-341h-171v-341h-171v-171h-341z" />
<glyph unicode="~" horiz-adv-x="682" d="M0 1024h512v341h-512v-341z" />
<glyph unicode="&#xa0;" />
<glyph unicode="&#xaa;" d="M0 0h341v341h171v-341h341v1195h-170v170h-512v-170h-171v-1195zM341 683v341h171v-341h-171z" />
<glyph unicode="&#xad;" horiz-adv-x="1194" d="M0 512h1024v341h-1024v-341z" />
<glyph unicode="&#xb2;" d="M0 0h853v341h-512v171h342v171h170v512h-170v170h-683v-341h512v-171h-341v-170h-171v-683z" />
<glyph unicode="&#xb3;" d="M0 0h683v171h170v1024h-170v170h-683v-341h512v-171h-341v-341h341v-171h-512v-341z" />
<glyph unicode="&#xb9;" horiz-adv-x="682" d="M0 1024h171v-1024h341v1195h-171v170h-341v-341z" />
<glyph unicode="&#xba;" d="M0 171h171v-171h512v171h170v1024h-170v170h-512v-170h-171v-1024zM341 341v683h171v-683h-171z" />
<glyph unicode="&#xc0;" d="M-85 1828h512v342h-512v-342zM0 0h341v512h171v-512h341v1536h-170v171h-512v-171h-171v-1536zM341 853v512h171v-512h-171z" />
<glyph unicode="&#xc2;" d="M0 0h341v512h171v-512h341v1536h-170v171h-512v-171h-171v-1536zM171 1828h512v342h-512v-342zM341 853v512h171v-512h-171z" />
<glyph unicode="&#xc3;" d="M0 0h341v512h171v-512h341v1536h-170v171h-512v-171h-171v-1536zM171 1828h512v342h-512v-342zM341 853v512h171v-512h-171z" />
<glyph unicode="&#xc8;" d="M0 171h171v-171h682v341h-512v342h512v341h-512v341h512v342h-682v-171h-171v-1365zM0 1828h512v342h-512v-342z" />
<glyph unicode="&#xca;" d="M0 171h171v-171h682v341h-512v342h512v341h-512v341h512v342h-682v-171h-171v-1365zM256 1828h512v342h-512v-342z" />
<glyph unicode="&#xcc;" horiz-adv-x="512" d="M-341 1828h512v342h-512v-342zM0 0h341v1707h-341v-1707z" />
<glyph unicode="&#xce;" horiz-adv-x="512" d="M-85 1828h512v342h-512v-342zM0 0h341v1707h-341v-1707z" />
<glyph unicode="&#xd1;" d="M0 0h341v1365h171v-1365h341v1536h-170v171h-683v-1707zM85 1828h512v342h-512v-342z" />
<glyph unicode="&#xd2;" d="M-85 1828h512v342h-512v-342zM0 171h171v-171h512v171h170v1365h-170v171h-512v-171h-171v-1365zM341 341v1024h171v-1024h-171z" />
<glyph unicode="&#xd4;" d="M0 171h171v-171h512v171h170v1365h-170v171h-512v-171h-171v-1365zM171 1828h512v342h-512v-342zM341 341v1024h171v-1024h-171z" />
<glyph unicode="&#xd5;" d="M0 171h171v-171h512v171h170v1365h-170v171h-512v-171h-171v-1365zM171 1828h512v342h-512v-342zM341 341v1024h171v-1024h-171z" />
<glyph unicode="&#xd9;" d="M-85 1828h512v342h-512v-342zM0 171h171v-171h512v171h170v1536h-341v-1366h-171v1366h-341v-1536z" />
<glyph unicode="&#xdb;" d="M0 171h171v-171h512v171h170v1536h-341v-1366h-171v1366h-341v-1536zM171 1828h512v342h-512v-342z" />
<glyph unicode="&#xe0;" d="M-85 1487h512v341h-512v-341zM0 0h341v341h171v-341h341v1195h-170v170h-512v-170h-171v-1195zM341 683v341h171v-341h-171z" />
<glyph unicode="&#xe2;" d="M0 0h341v341h171v-341h341v1195h-170v170h-512v-170h-171v-1195zM171 1487h512v341h-512v-341zM341 683v341h171v-341h-171z" />
<glyph unicode="&#xe3;" d="M0 0h341v341h171v-341h341v1195h-170v170h-512v-170h-171v-1195zM171 1487h512v341h-512v-341zM341 683v341h171v-341h-171z" />
<glyph unicode="&#xe8;" d="M0 171h171v-171h682v341h-512v171h512v341h-512v171h512v341h-682v-170h-171v-1024zM0 1487h512v341h-512v-341z" />
<glyph unicode="&#xea;" d="M0 171h171v-171h682v341h-512v171h512v341h-512v171h512v341h-682v-170h-171v-1024zM256 1487h512v341h-512v-341z" />
<glyph unicode="&#xec;" horiz-adv-x="512" d="M-341 1487h512v341h-512v-341zM0 0h341v1365h-341v-1365z" />
<glyph unicode="&#xee;" horiz-adv-x="512" d="M-85 1487h512v341h-512v-341zM0 0h341v1365h-341v-1365z" />
<glyph unicode="&#xf1;" d="M0 0h341v1024h171v-1024h341v1195h-170v170h-683v-1365zM171 1487h512v341h-512v-341z" />
<glyph unicode="&#xf2;" d="M-85 1487h512v341h-512v-341zM0 171h171v-171h512v171h170v1024h-170v170h-512v-170h-171v-1024zM341 341v683h171v-683h-171z" />
<glyph unicode="&#xf4;" d="M0 171h171v-171h512v171h170v1024h-170v170h-512v-170h-171v-1024zM171 1487h512v341h-512v-341zM341 341v683h171v-683h-171z" />
<glyph unicode="&#xf5;" d="M0 171h171v-171h512v171h170v1024h-170v170h-512v-170h-171v-1024zM171 1487h512v341h-512v-341zM341 341v683h171v-683h-171z" />
<glyph unicode="&#xf9;" d="M-85 1487h512v341h-512v-341zM0 171h171v-171h512v171h170v1194h-341v-1024h-171v1024h-341v-1194z" />
<glyph unicode="&#xfb;" d="M0 171h171v-171h512v171h170v1194h-341v-1024h-171v1024h-341v-1194zM171 1487h512v341h-512v-341z" />
<glyph unicode="&#x152;" horiz-adv-x="2048" d="M0 171h171v-171h512v171h170v1365h-170v171h-512v-171h-171v-1365zM341 341v1024h171v-1024h-171zM1024 171h171v-171h682v341h-512v342h512v341h-512v341h512v342h-682v-171h-171v-1365z" />
<glyph unicode="&#x153;" horiz-adv-x="2048" d="M0 171h171v-171h512v171h170v1024h-170v170h-512v-170h-171v-1024zM341 341v683h171v-683h-171zM1024 171h171v-171h682v341h-512v171h512v341h-512v171h512v341h-682v-170h-171v-1024z" />
<glyph unicode="&#x2c6;" horiz-adv-x="682" d="M0 1024h512v341h-512v-341z" />
<glyph unicode="&#x2dc;" horiz-adv-x="682" d="M-256 122h512v341h-512v-341z" />
<glyph unicode="&#x2013;" d="M205 512v205h614v-205h-614z" />
<glyph unicode="&#x2014;" horiz-adv-x="2048" d="M205 512v205h1638v-205h-1638z" />
<glyph unicode="&#x2018;" horiz-adv-x="682" d="M0 1024h512v341h-512v-341z" />
<glyph unicode="&#x2019;" horiz-adv-x="512" d="M0 853h341v512h-341v-512z" />
<glyph unicode="&#x201c;" d="M0 853h341v512h-341v-512zM512 853h341v512h-341v-512z" />
<glyph unicode="&#x201d;" d="M0 853h341v512h-341v-512zM512 853h341v512h-341v-512z" />
<glyph unicode="&#x2026;" horiz-adv-x="1536" d="M0 0h341v341h-341v-341zM512 0h341v341h-341v-341zM1024 0h341v341h-341v-341z" />
<glyph unicode="&#x2039;" d="M0 512h171v-171h170v-170h171v-171h341v341h-170v171h-171v341h171v171h170v341h-341v-170h-171v-171h-170v-171h-171v-341z" />
<glyph unicode="&#x203a;" d="M0 0v341h171v171h170v341h-170v171h-171v341h341v-170h171v-171h171v-171h170v-341h-170v-171h-171v-170h-171v-171h-341z" />
<glyph unicode="&#x2122;" horiz-adv-x="2730" d="M0 1365h341v-1365h342v1365h341v342h-1024v-342zM1195 0h341v1365h171v-1365h341v1365h171v-1365h341v1536h-171v171h-1194v-1707z" />
<glyph unicode="&#xe000;" horiz-adv-x="1365" d="M0 1365h1365v-1365h-1365v1365z" />
<glyph unicode="&#xfb01;" horiz-adv-x="1536" d="M0 0h341v512h512v341h-512v171h512v341h-682v-170h-171v-1195zM1024 0h341v1365h-341v-1365z" />
<glyph unicode="&#xfb02;" horiz-adv-x="2048" d="M0 0h341v512h512v341h-512v171h512v341h-682v-170h-171v-1195zM1024 171h171v-171h682v341h-512v1024h-341v-1194z" />
<glyph unicode="&#xfb03;" horiz-adv-x="2560" d="M0 0h341v512h512v341h-512v171h512v341h-682v-170h-171v-1195zM1024 0h341v512h512v341h-512v171h512v341h-682v-170h-171v-1195zM2048 0h341v1365h-341v-1365z" />
<glyph unicode="&#xfb04;" horiz-adv-x="3072" d="M0 0h341v512h512v341h-512v171h512v341h-682v-170h-171v-1195zM1024 0h341v512h512v341h-512v171h512v341h-682v-170h-171v-1195zM2048 171h171v-171h682v341h-512v1024h-341v-1194z" />
</font>
</defs>
</svg>
